# xmcd
#
# Track frame offsets: 
#        150
#        11397
#        21240
#        30082
#        40962
#        51010
#        59130
#        70057
#        78510
#        90352
#        98155
#        109070
#        118077
#        128295
#        138095
#        147080
#        156280
#        168367
#        179237
#        187792
#        195795
#        204087
#        214082
#        223975
#        234272
#
# Disc length: 3265 seconds
#
# Revision: 7
# Processed by: cddbd v1.5.2PL0 Copyright (c) Steve Scherf et al.
# Submitted via: ExactAudioCopyFreeDBPlugin 1.0
#
DISCID=480cbf19
DTITLE=Johnny Cash - The Very Best of Johnny Cash The Country Boy [CD 
DTITLE=2)
DYEAR=2001
DGENRE=Country
TTITLE0=Oh, Lonesome Me
TTITLE1=Rock Island Line
TTITLE2=Two Timin' Woman
TTITLE3=Wide Open Road
TTITLE4=Hey! Porter
TTITLE5=The Wreck Of The Old '97
TTITLE6=Belshazar
TTITLE7=Country Boy
TTITLE8=Doin' My Time
TTITLE9=If The Good Lord's Willing
TTITLE10=I Heard That Lonesome Whistle Cry
TTITLE11=Remember Me  (I'm The One Who Loves You)
TTITLE12=I Was There When It Happened
TTITLE13=Born To Lose
TTITLE14=Life Goes On
TTITLE15=Blue Train
TTITLE16=Goodnight Irene
TTITLE17=Fool's Hall Of Fame
TTITLE18=I Forgot To Remember To Forget
TTITLE19=I Can't Help It  (If I'm Still In Love With You)
TTITLE20=Always Alone
TTITLE21=I Could Never Be Ashamed Of You
TTITLE22=The Story Of A Broken Heart
TTITLE23=You Win Again
TTITLE24=I Thought You'd Like To Know
EXTD=(c)1996 Charly Schallplatten GmbH Germany\nCDCP 8241-2\nupc 40176
EXTD=92300420 YEAR: 2001 ID3G: 2
EXTT0=
EXTT1=
EXTT2=
EXTT3=
EXTT4=
EXTT5=
EXTT6=
EXTT7=
EXTT8=
EXTT9=
EXTT10=
EXTT11=
EXTT12=
EXTT13=
EXTT14=
EXTT15=
EXTT16=
EXTT17=
EXTT18=
EXTT19=
EXTT20=
EXTT21=
EXTT22=
EXTT23=
EXTT24=
PLAYORDER=
